<svg xmlns="http://www.w3.org/2000/svg" viewBox="0 0 94 94"><defs><style>.cls-1{fill:#dcdcdc;}.cls-2{fill:#348f41;}.cls-3{fill:#2d2a26;}</style></defs><title>ApplyToColleges_Stroke</title><g id="Layer_2" data-name="Layer 2"><g id="Layer_1-2" data-name="Layer 1"><path class="cls-1" d="M47,94A47,47,0,1,1,94,47,47,47,0,0,1,47,94ZM47,4A43,43,0,1,0,90,47,43,43,0,0,0,47,4Z"/><path class="cls-2" d="M59.19,65.37,49.81,44.16,28.65,34.6,75.37,18.74ZM39.54,35.13l13.31,6,5.89,13.32L68.91,25.15Z"/><rect class="cls-2" x="46.09" y="32.14" width="27.82" height="4" transform="translate(-6.61 52.27) rotate(-44.87)"/><rect class="cls-3" x="30.12" y="53.57" width="16.78" height="4" transform="translate(-28.02 43.5) rotate(-45)"/><rect class="cls-3" x="19.41" y="49.64" width="16.78" height="4" transform="translate(-28.38 34.78) rotate(-45)"/><rect class="cls-3" x="33.89" y="64.12" width="16.78" height="4" transform="translate(-34.37 49.26) rotate(-45)"/></g></g></svg>