<svg xmlns="http://www.w3.org/2000/svg" viewBox="0 0 94 94"><defs><style>.cls-1{fill:#dcdcdc;}.cls-2{fill:#2d2a26;}.cls-3{fill:#348f41;}</style></defs><title>BuildCollegeList_Stroke</title><g id="Layer_2" data-name="Layer 2"><g id="Layer_1-2" data-name="Layer 1"><path class="cls-1" d="M47,94A47,47,0,1,1,94,47,47,47,0,0,1,47,94ZM47,4A43,43,0,1,0,90,47,43,43,0,0,0,47,4Z"/><rect class="cls-2" x="38.71" y="45.44" width="4" height="21.33"/><rect class="cls-2" x="28.96" y="45.44" width="4" height="21.33"/><path class="cls-3" d="M50.65,26l-10-10-22,22,2.82,2.83L40.68,21.67l7,7A17.29,17.29,0,0,1,50.65,26Z"/><path class="cls-3" d="M59.86,40.85,62.69,38l-9.18-9.17a13.08,13.08,0,0,0-3,2.68Z"/><path class="cls-2" d="M48.46,51.82V66.76h4V54.88A17.13,17.13,0,0,1,48.46,51.82Z"/><path class="cls-3" d="M58.74,47.5v5.35a13.27,13.27,0,0,0,2,.16,12,12,0,0,0,2-.17V43.5H48.1a13.14,13.14,0,0,0,1.94,4Z"/><path class="cls-3" d="M62.74,65.16V56.89a16.73,16.73,0,0,1-4,0v8.27H22.67V47.5H45.39a17,17,0,0,1-1.42-4H18.67V65.16H14.13v4H67.29v-4Z"/><path class="cls-2" d="M81.29,56.58l-8.8-8.79a14.25,14.25,0,1,0-2.69,3l8.66,8.66ZM60.74,50A10.19,10.19,0,1,1,70.93,39.84,10.2,10.2,0,0,1,60.74,50Z"/></g></g></svg>