<svg xmlns="http://www.w3.org/2000/svg" viewBox="0 0 94 94"><defs><style>.cls-1{fill:#dcdcdc;}.cls-2{fill:#2d2a26;}.cls-3{fill:#348f41;}</style></defs><title>CompleteFAFSA_Stroke</title><g id="Layer_2" data-name="Layer 2"><g id="Layer_1-2" data-name="Layer 1"><path class="cls-1" d="M47,94A47,47,0,1,1,94,47,47,47,0,0,1,47,94ZM47,4A43,43,0,1,0,90,47,43,43,0,0,0,47,4Z"/><path class="cls-2" d="M39.39,38.3h-4V31.14a11.61,11.61,0,0,1,23.22,0v2.31h-4V31.14a7.61,7.61,0,0,0-15.22,0Z"/><path class="cls-3" d="M63.76,74.46H30.24a2,2,0,0,1-2-2V39.54a2,2,0,0,1,2-2H63.76a2,2,0,0,1,2,2V72.46A2,2,0,0,1,63.76,74.46Zm-31.52-4H61.76V41.54H32.24Z"/><path class="cls-2" d="M40.84,58.08a2.32,2.32,0,0,1,.74-.27,4.39,4.39,0,0,1,.78-.08,4.71,4.71,0,0,1,.8.08,2.47,2.47,0,0,1,.75.27v.85a1.74,1.74,0,0,0,.18.73,2,2,0,0,0,.57.68,3.09,3.09,0,0,0,1,.49,4.37,4.37,0,0,0,1.43.2,3.19,3.19,0,0,0,2-.47,1.43,1.43,0,0,0,.58-1.14,1.67,1.67,0,0,0-.15-.75,1.49,1.49,0,0,0-.55-.58,4.59,4.59,0,0,0-1.1-.49c-.46-.14-1-.3-1.78-.47a7.88,7.88,0,0,1-3.66-1.63,4,4,0,0,1-1.27-3.19,4.4,4.4,0,0,1,.37-1.87,3.91,3.91,0,0,1,1-1.36A4.68,4.68,0,0,1,44,48.21a8.06,8.06,0,0,1,1.82-.42V46H48v1.85a4.4,4.4,0,0,1,1.06.34,2.56,2.56,0,0,1,.69.47v-.51a2.18,2.18,0,0,1,.66-.27,3.67,3.67,0,0,1,.7-.08,3.86,3.86,0,0,1,.72.08,2.14,2.14,0,0,1,.67.27V53a2.11,2.11,0,0,1-.72.26,3.51,3.51,0,0,1-.76.08,3.43,3.43,0,0,1-.75-.08,2.08,2.08,0,0,1-.7-.26v-.65a2,2,0,0,0-.15-.74,1.75,1.75,0,0,0-.48-.65,2.25,2.25,0,0,0-.84-.47,4.1,4.1,0,0,0-1.25-.17,2.86,2.86,0,0,0-1.82.47,1.47,1.47,0,0,0-.56,1.15,1.38,1.38,0,0,0,.15.65,1.33,1.33,0,0,0,.53.52,4.47,4.47,0,0,0,1.05.44c.45.14,1,.29,1.73.44a17.36,17.36,0,0,1,2.2.63,5.68,5.68,0,0,1,1.63.92,3.62,3.62,0,0,1,1,1.36,5.06,5.06,0,0,1,.34,2,4.61,4.61,0,0,1-.4,2,4.15,4.15,0,0,1-1.09,1.42,4.73,4.73,0,0,1-1.59.88,8.58,8.58,0,0,1-1.93.39V66H45.94V63.5a4.22,4.22,0,0,1-1.24-.42,8.64,8.64,0,0,1-.93-.57v.62a2.76,2.76,0,0,1-.73.27,4.17,4.17,0,0,1-.75.08,4.07,4.07,0,0,1-.74-.08,2.62,2.62,0,0,1-.71-.27Z"/></g></g></svg>