<svg xmlns="http://www.w3.org/2000/svg" viewBox="0 0 94 94"><defs><style>.cls-1{fill:#dcdcdc;}.cls-2{fill:#348f41;}.cls-3{fill:#2d2a26;}</style></defs><title>CompleteYourJourney_Stroke</title><g id="Layer_2" data-name="Layer 2"><g id="Layer_1-2" data-name="Layer 1"><path class="cls-1" d="M47,94A47,47,0,1,1,94,47,47,47,0,0,1,47,94ZM47,4A43,43,0,1,0,90,47,43,43,0,0,0,47,4Z"/><path class="cls-2" d="M57.63,53.15a5.27,5.27,0,0,1-4.13-2.08c-.65-.7-.8-.8-1.2-.8s-.55.1-1.2.8a5.15,5.15,0,0,1-8.27,0,3.46,3.46,0,0,0-.8-.72l1.75-3.6a6.67,6.67,0,0,1,2,1.6c.65.71.8.8,1.2.8s.55-.09,1.2-.8a5.15,5.15,0,0,1,8.27,0c.65.71.8.8,1.2.8s.55-.09,1.2-.8A8.12,8.12,0,0,1,60.3,47l2.17,3.36a4.21,4.21,0,0,0-.7.67A5.31,5.31,0,0,1,57.63,53.15Z"/><rect class="cls-2" x="20.13" y="68.24" width="53.84" height="4"/><polygon class="cls-2" points="24.91 64.22 37.39 43.09 40.1 47.68 30.34 64.22 34.98 64.22 44.22 48.59 45.01 48.12 44.75 47.68 52.15 35.16 69.31 64.22 73.95 64.22 52.15 27.29 42.43 43.75 37.39 35.22 20.27 64.22 24.91 64.22"/><rect class="cls-3" x="50.15" y="14.59" width="4" height="16.2"/><polygon class="cls-3" points="61.43 22 50.8 22 50.8 14.59 61.43 14.59 58.62 18.3 61.43 22"/></g></g></svg>