<svg xmlns="http://www.w3.org/2000/svg" viewBox="0 0 94 94"><defs><style>.cls-1{fill:#dcdcdc;}.cls-2{fill:#348f41;}.cls-3{fill:#2d2a26;}</style></defs><title>ImproveYourScore_Stroke</title><g id="Layer_2" data-name="Layer 2"><g id="Layer_1-2" data-name="Layer 1"><path class="cls-1" d="M47,94A47,47,0,1,1,94,47,47,47,0,0,1,47,94ZM47,4A43,43,0,1,0,90,47,43,43,0,0,0,47,4Z"/><path class="cls-2" d="M65.2,70.6H28.8V23.4H65.2Zm-32.4-4H61.2V27.4H32.8Z"/><polygon class="cls-3" points="18.6 67.1 15.68 64.37 40.36 37.97 52.63 50.97 74.41 27.67 77.33 30.4 52.64 56.81 40.37 43.81 18.6 67.1"/><polygon class="cls-3" points="74.87 36.45 74.67 30.33 68.51 30.54 68.38 26.54 78.54 26.2 78.86 36.32 74.87 36.45"/></g></g></svg>