<svg xmlns="http://www.w3.org/2000/svg" viewBox="0 0 94 94"><defs><style>.cls-1{fill:#dcdcdc;}.cls-2{fill:#348f41;}</style></defs><title>PracticeSAT_Stroke</title><g id="Layer_2" data-name="Layer 2"><g id="Layer_1-2" data-name="Layer 1"><path class="cls-1" d="M47,94A47,47,0,1,1,94,47,47,47,0,0,1,47,94ZM47,4A43,43,0,1,0,90,47,43,43,0,0,0,47,4Z"/><path class="cls-2" d="M24.59,60.17H20.47a7,7,0,1,1,0-13.94h4.12v4H20.47a3,3,0,1,0,0,5.94h4.12Z"/><path class="cls-2" d="M42.06,72.57a19.37,19.37,0,0,1-.68-38.73h8.95v4.73h3.75V33.83H78.52V44.37L61.13,49.82A19.41,19.41,0,0,1,42.06,72.57Zm0-34.74A15.36,15.36,0,1,0,56.84,49l-.53-1.87,18.21-5.71v-3.6H58.08v4.73H46.33V37.83Z"/><rect x="41.12" y="20.18" width="4" height="9.69" transform="translate(-6.25 31.95) rotate(-38.11)"/><rect x="56.43" y="23.02" width="9.69" height="4" transform="translate(3.77 57.8) rotate(-51.89)"/><rect x="50.2" y="13.43" width="4" height="12.59"/><path d="M42.06,62.17a9,9,0,1,1,9-9A9,9,0,0,1,42.06,62.17Zm0-13.94a5,5,0,1,0,5,5A5,5,0,0,0,42.06,48.23Z"/></g></g></svg>