<svg xmlns="http://www.w3.org/2000/svg" viewBox="0 0 94 94"><defs><style>.cls-1{fill:#dcdcdc;}.cls-2{fill:#2d2a26;}.cls-3{fill:#348f41;}</style></defs><title>StrengthenList_Stroke</title><g id="Layer_2" data-name="Layer 2"><g id="Layer_1-2" data-name="Layer 1"><path class="cls-1" d="M47,94A47,47,0,1,1,94,47,47,47,0,0,1,47,94ZM47,4A43,43,0,1,0,90,47,43,43,0,0,0,47,4Z"/><rect class="cls-2" x="16.67" y="63.55" width="17.1" height="4"/><rect class="cls-2" x="60.23" y="53.94" width="17.1" height="4"/><path class="cls-3" d="M33.77,59.54H16.68l6.84-28.66L70.3,20.57l7,29.36H60.23L66,25.61,27.69,34.06Zm-12-4h7L25.23,41Zm43.54-9.61h6.95L68.76,31.36Z"/><rect class="cls-2" x="45" y="17.94" width="4" height="54.74"/><rect class="cls-3" x="39.87" y="71.06" width="14.25" height="4"/></g></g></svg>